STARTFONT 2.1
FONT -MIT-40VSHD KST-Medium-R-Normal--40-14-200-200-P-26-ISO8859-1
SIZE 14 200 200
FONTBOUNDINGBOX 34 40 -9 -8
STARTPROPERTIES 17
ADD_STYLE_NAME ""
AVERAGE_WIDTH 26
CHARSET_ENCODING "1"
CHARSET_REGISTRY "ISO8859"
DEFAULT_CHAR 0
FAMILY "40VSHD KST"
FONT_ASCENT 32
FONT_DESCENT 8
FOUNDRY "MIT"
PIXEL_SIZE 40
POINT_SIZE 14
RESOLUTION_X 200
RESOLUTION_Y 200
SETWIDTH_NAME "Normal"
SLANT "R"
SPACING "P"
WEIGHT_NAME "Medium"
ENDPROPERTIES
CHARS 53
STARTCHAR char23
ENCODING 23
SWIDTH 2698 0
DWIDTH 38 0
BBX 35 40 1 -8
BITMAP
0000000000
0000000000
0002008000
000601C000
000E03E000
001A07B000
00320F9800
00620F8C00
00C20F8600
01820F8300
0303FF8180
06000000C0
0C00000060
1800000020
3800000020
7800000020
FC00000060
FE000000C0
FF03FF8180
FF83FF8300
FFC3FF8600
7FE3FF8C00
3FF3FF9800
1FFA0FB000
0FFE0FE000
07FE0FC000
03FE0F8000
01FC0F0000
00F80E0000
00700C0000
0020080000
0000000000
0000000000
0000000000
0000000000
0000000000
0000000000
0000000000
0000000000
0000000000
ENDCHAR
STARTCHAR char24
ENCODING 24
SWIDTH 2343 0
DWIDTH 33 0
BBX 30 40 1 -8
BITMAP
00000000
00000000
00020000
00060000
000E0000
001A0000
00320000
00620000
00C20000
01820000
0303FFFC
06000004
0C000004
18000004
38000004
78000004
FC000004
FE000004
FF03FFFC
FF83FFF8
FFC3FFF0
7FE3FFE0
3FF3FFC0
1FFA0000
0FFE0000
07FE0000
03FE0000
01FC0000
00F80000
00700000
00200000
00000000
00000000
00000000
00000000
00000000
00000000
00000000
00000000
00000000
ENDCHAR
STARTCHAR char25
ENCODING 25
SWIDTH 2627 0
DWIDTH 37 0
BBX 26 40 9 -8
BITMAP
00000000
00000000
00010000
00018000
0001C000
00016000
00013000
00011800
00010C00
00010600
FFFF0300
00000180
000000C0
00000040
00000040
00000040
000000C0
00000180
FFFF0300
00010600
00010C00
00011800
00013000
00016000
0001C000
00018000
00010000
00000000
00000000
00000000
00000000
00000000
00000000
00000000
00000000
00000000
00000000
00000000
00000000
00000000
ENDCHAR
STARTCHAR char26
ENCODING 26
SWIDTH 2343 0
DWIDTH 33 0
BBX 30 40 1 -8
BITMAP
00000000
00000000
00001000
00003800
00007C00
0000F600
0001F300
0001F180
0001F0C0
0001F060
0FFFF030
18000018
3800000C
78000004
F8000004
F8000004
F800000C
F8000018
FFFFF030
FFFFF060
FFFFF0C0
FFFFF180
FFFFF300
0001F600
0001FC00
0001F800
0001F000
0001E000
0001C000
00018000
00010000
00000000
00000000
00000000
00000000
00000000
00000000
00000000
00000000
00000000
ENDCHAR
STARTCHAR char32
ENCODING 32
SWIDTH 2059 0
DWIDTH 29 0
BBX 1 40 0 -8
BITMAP
00
00
00
00
00
00
00
00
00
00
00
00
00
00
00
00
00
00
00
00
00
00
00
00
00
00
00
00
00
00
00
00
00
00
00
00
00
00
00
00
ENDCHAR
STARTCHAR char33
ENCODING 33
SWIDTH 1207 0
DWIDTH 17 0
BBX 14 40 1 -8
BITMAP
0000
0FFC
1804
3804
7804
F804
F804
F804
F804
F804
FC0C
FC08
FC08
FC08
FC08
7C08
7C08
7E18
7E10
7E10
7E10
7E10
3E10
3FF0
3FE0
3FC0
3F80
3FF0
0610
0E10
1E10
3E10
3FF0
3FE0
3FC0
3F80
3F00
0000
0000
0000
ENDCHAR
STARTCHAR char34
ENCODING 34
SWIDTH 1846 0
DWIDTH 26 0
BBX 19 40 1 -8
BITMAP
000000
0FC7E0
184C20
385C20
787C20
F87C20
F87C20
F87C20
FCFE60
FCFE40
FFFFC0
FF7F80
FF7F80
7E3F00
7C3E00
381C00
301800
000000
000000
000000
000000
000000
000000
000000
000000
000000
000000
000000
000000
000000
000000
000000
000000
000000
000000
000000
000000
000000
000000
000000
ENDCHAR
STARTCHAR char35
ENCODING 35
SWIDTH 1775 0
DWIDTH 25 0
BBX 22 40 1 -8
BITMAP
000000
000000
000000
000000
000000
000000
01F3E0
031620
071E20
0F1E3C
180004
380004
780004
F80004
FF1E3C
FF1E38
FF1E30
FF1E3C
F80004
380004
780004
F80004
FF1E3C
FF1E38
FF1E30
FFFFE0
FFFFC0
1FBF80
1F3F00
1E3E00
000000
000000
000000
000000
000000
000000
000000
000000
000000
000000
ENDCHAR
STARTCHAR char39
ENCODING 39
SWIDTH 923 0
DWIDTH 13 0
BBX 11 40 0 -8
BITMAP
0000
07E0
0C20
1C20
3C20
7C20
7E20
7E20
7C40
7880
7900
7E00
FC00
F800
F000
E000
0000
0000
0000
0000
0000
0000
0000
0000
0000
0000
0000
0000
0000
0000
0000
0000
0000
0000
0000
0000
0000
0000
0000
0000
ENDCHAR
STARTCHAR char43
ENCODING 43
SWIDTH 1846 0
DWIDTH 26 0
BBX 23 40 1 -8
BITMAP
000000
000000
000000
000000
000000
000000
000000
003F80
006080
00E080
01E080
03E080
03E080
0FE0FE
180002
380002
780002
F80002
F80002
FFE0FE
FFE0FC
FFE0F8
FFE0F0
FFE0E0
03E080
03FF80
03FF00
03FE00
03FC00
03F800
000000
000000
000000
000000
000000
000000
000000
000000
000000
000000
ENDCHAR
STARTCHAR char44
ENCODING 44
SWIDTH 923 0
DWIDTH 13 0
BBX 11 40 0 -8
BITMAP
0000
0000
0000
0000
0000
0000
0000
0000
0000
0000
0000
0000
0000
0000
0000
0000
0000
0000
0000
0000
0000
0000
0000
0000
0000
07E0
0C20
1C20
3C20
7C20
7E20
7E20
7C40
7880
7900
7E00
FC00
F800
F000
E000
ENDCHAR
STARTCHAR char46
ENCODING 46
SWIDTH 923 0
DWIDTH 13 0
BBX 10 40 1 -8
BITMAP
0000
0000
0000
0000
0000
0000
0000
0000
0000
0000
0000
0000
0000
0000
0000
0000
0000
0000
0000
0000
0000
0000
0000
0000
0000
0000
0000
0FC0
1840
3840
7840
F840
FFC0
FF80
FF00
FE00
FC00
0000
0000
0000
ENDCHAR
STARTCHAR char48
ENCODING 48
SWIDTH 1704 0
DWIDTH 24 0
BBX 21 40 1 -8
BITMAP
000000
0FFFF8
180008
380008
780008
F80008
F87F08
F87F08
F87F08
F87F08
F87F08
F85F08
F85F08
F85F08
F85F08
F85F08
F85F08
F85F08
F85F08
F85F08
F85F08
F85F08
F85F08
F87F08
F80008
F80008
F80008
F80008
FFFFF8
FFFFF0
FFFFE0
FFFFC0
FFFF80
000000
000000
000000
000000
000000
000000
000000
ENDCHAR
STARTCHAR char49
ENCODING 49
SWIDTH 1846 0
DWIDTH 26 0
BBX 23 40 1 -8
BITMAP
000000
003FC0
00E040
038040
0E0040
180040
380040
786040
F9E040
FFE040
FFE040
FFE040
FBE040
E3E040
03E040
03E040
03E040
03E040
03E040
03E040
03E040
03E040
03E040
07E07E
0C0002
1C0002
3C0002
7C0002
7FFFFE
7FFFFC
7FFFF8
7FFFF0
7FFFE0
000000
000000
000000
000000
000000
000000
000000
ENDCHAR
STARTCHAR char50
ENCODING 50
SWIDTH 1704 0
DWIDTH 24 0
BBX 21 40 1 -8
BITMAP
000000
07FFF8
0C0008
1C0008
3C0008
7C0008
7C7F08
7FFF08
7FFF08
7FFF08
7FFF08
7C0308
000608
000C08
001818
003030
006060
00C0C0
018180
030300
060600
0C0C00
180FF8
380008
780008
F80008
F80008
F80008
FFFFF8
FFFFF0
FFFFE0
FFFFC0
FFFF80
000000
000000
000000
000000
000000
000000
000000
ENDCHAR
STARTCHAR char51
ENCODING 51
SWIDTH 1775 0
DWIDTH 25 0
BBX 22 40 1 -8
BITMAP
000000
07FFF8
0C0008
1C0008
3C0008
7FFF08
7FFF08
7FFF08
7FFF08
001F08
001F08
07FE18
0C0030
1C00E0
3C0070
7C0018
7FFE04
7FFF04
7FFF04
7FFF04
001F04
001F04
001F04
001F04
0FFF04
180004
380004
780004
FFFFFC
FFFFF8
FFFFF0
FFFFE0
FFFFC0
000000
000000
000000
000000
000000
000000
000000
ENDCHAR
STARTCHAR char52
ENCODING 52
SWIDTH 2059 0
DWIDTH 29 0
BBX 27 40 0 -8
BITMAP
00000000
0FE0FF00
18218100
38238100
78278100
F82F8100
F82F8100
F82F8100
F82F8100
F82F8100
F83F8100
F8000100
F8000100
F8000100
F8000100
FFFF8100
FFFF8100
FFFF8100
FFFF8100
FFFF8100
000F8100
000F8100
000F8100
001F81E0
003C0020
007C0020
007C0020
007C0020
007FFFE0
007FFFC0
007FFF80
007FFF00
007FFE00
00000000
00000000
00000000
00000000
00000000
00000000
00000000
ENDCHAR
STARTCHAR char53
ENCODING 53
SWIDTH 1704 0
DWIDTH 24 0
BBX 21 40 1 -8
BITMAP
000000
0FFFF0
180010
380010
780010
F80010
F87FF0
F87FE0
F87FC0
F87F80
F87F00
F80180
F800C0
F80060
F80030
FFFE18
FFFE08
FFFE08
FFFE08
FFFE08
003E08
0FFE08
187E08
380008
780008
F80008
F80008
F80008
FFFFF8
FFFFF0
FFFFE0
FFFFC0
FFFF80
000000
000000
000000
000000
000000
000000
000000
ENDCHAR
STARTCHAR char54
ENCODING 54
SWIDTH 1775 0
DWIDTH 25 0
BBX 22 40 1 -8
BITMAP
000000
0007F8
000C18
001830
003060
0060C0
00C180
018300
030600
060C00
0C1800
183000
386000
787FC0
F80060
F80030
F80018
F8000C
F87F84
F87F84
F87F84
F87F84
F87F84
F84F84
F87F84
F80004
F80004
F80004
FFFFFC
FFFFF8
FFFFF0
FFFFE0
FFFFC0
000000
000000
000000
000000
000000
000000
000000
ENDCHAR
STARTCHAR char55
ENCODING 55
SWIDTH 1988 0
DWIDTH 28 0
BBX 25 40 1 -8
BITMAP
00000000
0FFFFF80
18000080
38000080
78000080
F8000080
F8000080
FFFFC080
FFFFC180
FFFF8100
FFFF8300
FFFF0200
000F0600
000E0400
001E0C00
001C0800
003C1800
00381000
00783000
00702000
00F06000
00E04000
01E0C000
01C08000
03C18000
03810000
07830000
07820000
0FFE0000
0FFC0000
0FF80000
0FF00000
0FE00000
00000000
00000000
00000000
00000000
00000000
00000000
00000000
ENDCHAR
STARTCHAR char56
ENCODING 56
SWIDTH 1775 0
DWIDTH 25 0
BBX 22 40 1 -8
BITMAP
000000
07FFF8
0C0008
1C0008
3C0008
7C3F08
7C3F08
7C3F08
7C3F08
7C3F08
7C3F08
7E0018
7F0030
7FC0E0
7F8070
7E0018
380004
180004
387F84
787F84
F87F84
F87F84
F87F84
F84F84
F87F84
F80004
F80004
F80004
FFFFFC
FFFFF8
FFFFF0
FFFFE0
FFFFC0
000000
000000
000000
000000
000000
000000
000000
ENDCHAR
STARTCHAR char57
ENCODING 57
SWIDTH 1775 0
DWIDTH 25 0
BBX 22 40 1 -8
BITMAP
000000
0FFFFC
180004
380004
780004
F87F84
F87F84
F87F84
F87F84
F87F84
F84F84
F87F84
FC0004
FE0004
FF0004
FF8004
FFFF84
7FFF84
3FFF04
1FFE0C
0FFC18
001830
003060
0060C0
00C180
018300
030600
060C00
0FF800
1FF000
3FE000
7FC000
FF8000
000000
000000
000000
000000
000000
000000
000000
ENDCHAR
STARTCHAR char58
ENCODING 58
SWIDTH 923 0
DWIDTH 13 0
BBX 10 40 1 -8
BITMAP
0000
0000
0000
0000
0000
0000
0000
0000
0000
0000
0000
0000
0000
0FC0
1840
3840
7840
F840
FFC0
FF80
FF00
FE00
FFC0
1840
3840
7840
F840
FFC0
FF80
FF00
FE00
FC00
0000
0000
0000
0000
0000
0000
0000
0000
ENDCHAR
STARTCHAR char59
ENCODING 59
SWIDTH 923 0
DWIDTH 13 0
BBX 11 40 0 -8
BITMAP
0000
0000
0000
0000
0000
0000
0000
0000
0000
0000
0000
0000
0000
0000
0000
0000
0FE0
0C20
1C20
3C20
7C20
7FE0
7FC0
7F80
7F00
7FE0
0C20
1C20
3C20
7C20
7E20
7E20
7C40
7880
7900
7E00
FC00
F800
F000
E000
ENDCHAR
STARTCHAR char65
ENCODING 65
SWIDTH 2059 0
DWIDTH 29 0
BBX 26 40 1 -8
BITMAP
00000000
00FFFFC0
01C00040
03C00040
07800040
0F800040
1F000040
3F07C040
7E07C040
FE07C040
FC07C040
FC07C040
FC000040
FC000040
FC000040
FC000040
FC000040
FC07C040
FC07C040
FC07C040
FC07C040
FC07C040
FC07C040
FC07C040
FC07C040
FC07C040
FC07C040
FC07C040
FFFFFFC0
FFFFFF80
FFF7FF00
FFE7FE00
FFC7FC00
00000000
00000000
00000000
00000000
00000000
00000000
00000000
ENDCHAR
STARTCHAR char66
ENCODING 66
SWIDTH 2059 0
DWIDTH 29 0
BBX 26 40 1 -8
BITMAP
00000000
07FFFFC0
0C000040
1C000040
3C000040
7C000040
FC000040
FC07C040
FC07C040
FC07C040
FC07C040
FC07C180
FC000300
FC000400
FC000700
FC000180
FC000040
FC07E040
FC07E040
FC07E040
FC07E040
FC07E040
FC000040
FC000040
FC000040
FC000040
FC000040
FC000040
FFFFFFC0
FFFFFF80
FFFFFF00
FFFFFE00
FFFFFC00
00000000
00000000
00000000
00000000
00000000
00000000
00000000
ENDCHAR
STARTCHAR char67
ENCODING 67
SWIDTH 1988 0
DWIDTH 28 0
BBX 25 40 1 -8
BITMAP
00000000
0FFFFF80
18000080
38000080
78000080
F8000080
F8000080
F81FC080
F81FC080
F81FC180
F81FCF00
F81FFE00
F813FC00
F813F800
F813F000
F8138000
F8100000
F8100000
F8107F80
F810C080
F811C080
F81FC080
F8000080
F8000080
F8000080
F8000080
F8000080
F8000080
FFFFFF80
FFFFFF00
FFFFFE00
FFFFFC00
FFFFF800
00000000
00000000
00000000
00000000
00000000
00000000
00000000
ENDCHAR
STARTCHAR char68
ENCODING 68
SWIDTH 2059 0
DWIDTH 29 0
BBX 26 40 1 -8
BITMAP
00000000
0FFFF800
18000800
38000C00
78000400
F8000600
F8000200
F81FC300
F81FC100
F81FC180
F817E080
F817E0C0
F817E040
F817E040
F817E040
F817E040
F813E040
F813E040
F813E040
F813E040
F813E040
F813E040
F81FE040
F8000040
F8000040
F8000040
F8000040
F8000040
FFFFFFC0
FFFFFF80
FFFFFF00
FFFFFE00
FFFFFC00
00000000
00000000
00000000
00000000
00000000
00000000
00000000
ENDCHAR
STARTCHAR char69
ENCODING 69
SWIDTH 2059 0
DWIDTH 29 0
BBX 26 40 1 -8
BITMAP
00000000
07FFFFC0
0C000040
1C000040
3C000040
7C000040
FC000040
FC07FFC0
FC07FF80
FC07FF00
FC07FE00
FC07FC00
FC002000
FC002000
FC002000
FC002000
FC002000
FC07E000
FC07C000
FC07C000
FC078000
FC07FFC0
FC000040
FC000040
FC000040
FC000040
FC000040
FC000040
FFFFFFC0
FFFFFF80
FFFFFF00
FFFFFE00
FFFFFC00
00000000
00000000
00000000
00000000
00000000
00000000
00000000
ENDCHAR
STARTCHAR char70
ENCODING 70
SWIDTH 2059 0
DWIDTH 29 0
BBX 26 40 1 -8
BITMAP
00000000
07FFFFC0
0C000040
1C000040
3C000040
7C000040
FC000040
FC07FFC0
FC07FF80
FC07FF00
FC07FE00
FC07FC00
FC002000
FC002000
FC002000
FC002000
FC002000
FC07E000
FC078000
FC070000
FC060000
FC040000
FC040000
FC040000
FC040000
FC040000
FC040000
FC040000
FFFC0000
FFF80000
FFF00000
FFE00000
FFC00000
00000000
00000000
00000000
00000000
00000000
00000000
00000000
ENDCHAR
STARTCHAR char71
ENCODING 71
SWIDTH 2059 0
DWIDTH 29 0
BBX 25 40 1 -8
BITMAP
00000000
0FFFFF80
18000080
38000080
78000080
F8000080
F8000080
F81FC080
F81FC080
F81FC180
F81FCF80
F81FFF00
F81FFF00
F81FFF80
F81C0080
F81C0080
F81C0080
F81C0080
F81C0080
F81FC080
F81FC080
F81FC080
F8000080
F8000080
F8000080
F8000080
F8002080
F800E080
FFFFFF80
FFFFFF00
FFFFFE00
FFFEFC00
FFF8F800
00000000
00000000
00000000
00000000
00000000
00000000
00000000
ENDCHAR
STARTCHAR char72
ENCODING 72
SWIDTH 2059 0
DWIDTH 29 0
BBX 26 40 1 -8
BITMAP
00000000
07FC7FC0
0C04C040
1C05C040
3C07C040
7C07C040
FC07C040
FC07C040
FC07C040
FC07C040
FC07C040
FC07C040
FC000040
FC000040
FC000040
FC000040
FC000040
FC07C040
FC07C040
FC07C040
FC07C040
FC07C040
FC07C040
FC07C040
FC07C040
FC07C040
FC07C040
FC07C040
FFFFFFC0
FFFFFF80
FFF7FF00
FFE7FE00
FFC7FC00
00000000
00000000
00000000
00000000
00000000
00000000
00000000
ENDCHAR
STARTCHAR char73
ENCODING 73
SWIDTH 1207 0
DWIDTH 17 0
BBX 14 40 1 -8
BITMAP
0000
0FFC
1804
3804
7804
F804
F804
F804
F804
F804
F804
F804
F804
F804
F804
F804
F804
F804
F804
F804
F804
F804
F804
F804
F804
F804
F804
F804
FFFC
FFF8
FFF0
FFE0
FFC0
0000
0000
0000
0000
0000
0000
0000
ENDCHAR
STARTCHAR char74
ENCODING 74
SWIDTH 1917 0
DWIDTH 27 0
BBX 24 40 1 -8
BITMAP
000000
0000FF
000181
000381
000781
000F81
000F81
000F81
000F81
000F81
000F81
000F81
000F81
000F81
000F81
000F81
0FEF81
182F81
382F81
782F81
F82F81
F83F81
F80001
F80001
F80001
FC0003
FE0006
FF000C
FFFFF8
FFFFF0
7FFFE0
3FFFC0
1FFF80
000000
000000
000000
000000
000000
000000
000000
ENDCHAR
STARTCHAR char75
ENCODING 75
SWIDTH 2059 0
DWIDTH 29 0
BBX 26 40 1 -8
BITMAP
00000000
07FC7FC0
0C04C040
1C05C040
3C07C040
7C07C040
FC07C040
FC07C040
FC0780C0
FC070180
FC060300
FC040600
FC000C00
FC001800
FC001000
FC001800
FC000C00
FC040600
FC060300
FC070180
FC0780C0
FC07C040
FC07C040
FC07C040
FC07C040
FC07C040
FC07C040
FC07C040
FFFFFFC0
FFF7FF80
FFE7FF00
FFC7FE00
00000000
00000000
00000000
00000000
00000000
00000000
00000000
00000000
ENDCHAR
STARTCHAR char76
ENCODING 76
SWIDTH 2059 0
DWIDTH 29 0
BBX 26 40 1 -8
BITMAP
00000000
07FC0000
0C040000
1C040000
3C040000
7C040000
FC040000
FC040000
FC040000
FC040000
FC040000
FC040000
FC040000
FC040000
FC040000
FC040000
FC040000
FC040000
FC040000
FC040000
FC040000
FC07FFC0
FC000040
FC000040
FC000040
FC000040
FC000040
FC000040
FFFFFFC0
FFFFFF80
FFFFFF00
FFFFFE00
FFFFFC00
00000000
00000000
00000000
00000000
00000000
00000000
00000000
ENDCHAR
STARTCHAR char77
ENCODING 77
SWIDTH 2485 0
DWIDTH 35 0
BBX 32 40 1 -8
BITMAP
00000000
07FC01FF
0C060301
1C020601
3C030E01
7C011C01
FC01BC01
FC00F801
FC00F801
FC007001
FC007001
FC002001
FC040101
FC060301
FC060301
FC070701
FC070701
FC078F01
FC078F01
FC07DF01
FC07DF01
FC07FF01
FC07FF01
FC07BF01
FC073F01
FC063F01
FC043F01
FC043F01
FFFC3FFF
FFF83FFE
FFF03FFC
FFE03FF8
FFC03FF0
FF803FE0
00000000
00000000
00000000
00000000
00000000
00000000
ENDCHAR
STARTCHAR char78
ENCODING 78
SWIDTH 2201 0
DWIDTH 31 0
BBX 28 40 1 -8
BITMAP
00000000
07FC1FF0
0C063010
1C027010
3C03F010
7C01F010
FC01F010
FC00F010
FC00F010
FC007010
FC007010
FC003010
FC041010
FC060010
FC070010
FC070010
FC078010
FC078010
FC07C010
FC05C010
FC05E010
FC05E010
FC05F010
FC05F010
FC05F010
FC05F010
FC05F010
FC05F010
FFFDFFF0
FFF9FFE0
FFF1FFC0
FFE1FF80
FFC1FF00
00000000
00000000
00000000
00000000
00000000
00000000
00000000
ENDCHAR
STARTCHAR char79
ENCODING 79
SWIDTH 2130 0
DWIDTH 30 0
BBX 27 40 1 -8
BITMAP
00000000
0FFFFFE0
18000020
38000020
78000020
F8000020
F8000020
F8000020
F81FF020
F81FF020
F81FF020
F81FF020
F81FF020
F811F020
F811F020
F811F020
F811F020
F811F020
F811F020
F811F020
F811F020
F81FF020
F8000020
F8000020
F8000020
F8000020
F8000020
F8000020
FFFFFFE0
FFFFFFC0
FFFFFF80
FFFFFF00
FFFFFE00
00000000
00000000
00000000
00000000
00000000
00000000
00000000
ENDCHAR
STARTCHAR char80
ENCODING 80
SWIDTH 2059 0
DWIDTH 29 0
BBX 26 40 1 -8
BITMAP
00000000
07FFFFC0
0C000040
1C000040
3C000040
7C000040
FC000040
FC07E040
FC07E040
FC07E040
FC07E040
FC07E040
FC07E040
FC07C040
FC070040
FC000040
FC0003C0
FC000F80
FC003F00
FC00FE00
FC07F800
FC07E000
FC078000
FC070000
FC060000
FC040000
FC040000
FC040000
FFFC0000
FFF80000
FFF00000
FFE00000
FFC00000
00000000
00000000
00000000
00000000
00000000
00000000
00000000
ENDCHAR
STARTCHAR char81
ENCODING 81
SWIDTH 2130 0
DWIDTH 30 0
BBX 29 40 1 -8
BITMAP
00000000
0FFFFF80
18000080
38000080
78000080
F8000080
F8000080
F8000080
F81FC080
F81FC080
F81FC080
F81FC080
F81FC080
F811C080
F811C080
F811C080
F811C080
F811C080
F811C080
F811C080
F811C0C0
F81FC078
F8000008
F8000008
F8000008
F8000408
F8000608
F8000F08
FFFFFFF8
FFFFFFF0
FFFFDFE0
FFFFCFC0
FFFF8780
00000000
00000000
00000000
00000000
00000000
00000000
00000000
ENDCHAR
STARTCHAR char82
ENCODING 82
SWIDTH 2059 0
DWIDTH 29 0
BBX 26 40 1 -8
BITMAP
00000000
07FFFFC0
0C000040
1C000040
3C000040
7C000040
FC000040
FC07C040
FC07C040
FC07C040
FC07C040
FC07C040
FC07C040
FC000040
FC000040
FC000040
FC000040
FC000040
FC0407C0
FC060380
FC070100
FC0780C0
FC07C040
FC07C040
FC07C040
FC07C040
FC07C040
FC07C040
FFFFFFC0
FFFFFF80
FFF7FF00
FFE7FE00
FFC7FC00
00000000
00000000
00000000
00000000
00000000
00000000
00000000
ENDCHAR
STARTCHAR char83
ENCODING 83
SWIDTH 1988 0
DWIDTH 28 0
BBX 25 40 1 -8
BITMAP
00000000
007FFF80
00800080
01000080
02000080
04000080
08000080
18000080
381FFF80
781FFF00
F81FFE00
F81FFF80
F8000080
F8000080
F8000080
F8000080
F8000080
F8000080
FFFFC080
FFFFC080
FFFFC080
FFFFC080
F8000080
08000080
18000080
38000100
78000300
F8000600
FFFFFE00
FFFFFC00
FFFFFC00
FFFFF800
FFFFF800
00000000
00000000
00000000
00000000
00000000
00000000
00000000
ENDCHAR
STARTCHAR char84
ENCODING 84
SWIDTH 1988 0
DWIDTH 28 0
BBX 25 40 1 -8
BITMAP
00000000
0FFFFF80
18000080
38000080
78000080
F8000080
F8000080
F8000080
F8000080
F8000080
FFE03F80
FFE03F00
FFE03E00
FFE03C00
FFE03800
03E02000
03E02000
03E02000
03E02000
03E02000
03E02000
03E02000
03E02000
03E02000
03E02000
03E02000
03E02000
03E02000
03FFE000
03FFC000
03FF8000
03FF0000
03FE0000
00000000
00000000
00000000
00000000
00000000
00000000
00000000
ENDCHAR
STARTCHAR char85
ENCODING 85
SWIDTH 2059 0
DWIDTH 29 0
BBX 26 40 1 -8
BITMAP
00000000
07FC7FC0
0C04C040
1C05C040
3C07C040
7C07C040
FC07C040
FC07C040
FC07C040
FC07C040
FC07C040
FC07C040
FC07C040
FC07C040
FC07C040
FC07C040
FC07C040
FC07C040
FC07C040
FC07C040
FC07C040
FC000040
FC000040
FC000040
FC000040
FC000040
FC000040
FC000040
FFFFFFC0
FFFFFF80
FFFFFF00
FFFFFE00
FFFFFC00
00000000
00000000
00000000
00000000
00000000
00000000
00000000
ENDCHAR
STARTCHAR char86
ENCODING 86
SWIDTH 2130 0
DWIDTH 30 0
BBX 27 40 1 -8
BITMAP
00000000
0FC007E0
18400C20
38601C20
78203820
FC207860
FC307840
FC10F040
FE10F0C0
FE18F080
7E09E080
7F09E180
7F0DE100
3F87C100
3F87C300
3F87C200
1F838200
1FC38600
1FC38400
0FC10400
0FE10C00
0FE00800
07E00800
07F01800
07F01000
03F01000
03F83000
03F82000
01FFE000
01FFC000
01FF8000
00FF0000
00FE0000
00000000
00000000
00000000
00000000
00000000
00000000
00000000
ENDCHAR
STARTCHAR char87
ENCODING 87
SWIDTH 2414 0
DWIDTH 34 0
BBX 31 40 1 -8
BITMAP
00000000
0FF803FE
18080602
38080E02
78081E02
F8083E02
F8083E02
F8083E02
F8083E02
F8083E02
F8083E02
F8083E02
F8087E02
F808FE02
F8099E02
F80B0E02
F80E0602
F80C0202
F8000002
F8000002
F8000002
F8000002
F8004002
F800E004
F801F008
F803F810
F807FC20
F80DFE40
FFF8FF80
FFF07F00
FFE03E00
FFC01C00
FF800800
00000000
00000000
00000000
00000000
00000000
00000000
00000000
ENDCHAR
STARTCHAR char88
ENCODING 88
SWIDTH 2130 0
DWIDTH 30 0
BBX 27 40 1 -8
BITMAP
00000000
0FF01FE0
18103020
3C107060
7C18F040
FE09E0C0
FE0DE080
FF05C180
7F07C100
7F838300
3F838200
3FC10600
1FC00400
1FE00C00
0FE00800
0FE00800
07E00C00
07C00400
03C10600
03838200
07838300
0707C100
0F07C180
0E0FE080
1E0FE0C0
1C1FF040
3C17F060
3817F020
7FF3FFE0
7FE3FFC0
FFC1FF80
FF81FF00
FF01FE00
00000000
00000000
00000000
00000000
00000000
00000000
00000000
ENDCHAR
STARTCHAR char89
ENCODING 89
SWIDTH 2130 0
DWIDTH 30 0
BBX 27 40 1 -8
BITMAP
00000000
0FE00FE0
18201820
3C303860
7C107040
FE18F0C0
FE08E080
FF0DE180
7F05C100
7F87C300
3F838200
3FC38600
1FC00400
1FE00C00
0FE00800
0FF01800
07F01000
07F01000
03F01000
03F01000
01F01000
01F01000
01F01000
01F01000
01F01000
01F01000
01F01000
01F01000
01FFF000
01FFE000
01FFC000
01FF8000
01FF0000
00000000
00000000
00000000
00000000
00000000
00000000
00000000
ENDCHAR
STARTCHAR char90
ENCODING 90
SWIDTH 2059 0
DWIDTH 29 0
BBX 25 40 1 -8
BITMAP
00000000
0FFFFF80
18000080
38000080
78000080
F8000080
F8000080
FFFFC080
FFFF8080
FFFF0080
FFFE0100
FFFC0200
00780400
00F00800
01E01000
03C02000
07804000
0F008000
1E010000
3C020000
78040000
F8080000
F81FFF80
F8000080
F8000080
F8000080
F8000080
F8000080
FFFFFF80
FFFFFF00
FFFFFE00
FFFFFC00
FFFFF800
00000000
00000000
00000000
00000000
00000000
00000000
00000000
ENDCHAR
STARTCHAR char91
ENCODING 91
SWIDTH 1420 0
DWIDTH 20 0
BBX 17 40 1 -8
BITMAP
000000
07FF80
0C0080
1C0080
3C0080
7C0080
FC0080
FC3F80
FC3F00
FC3E00
FC3C00
FC3800
FC2000
FC2000
FC2000
FC2000
FC2000
FC2000
FC2000
FC2000
FC2000
FC2000
FC3F80
FC0080
FC0080
FC0080
FC0080
FC0080
FFFF80
FFFF00
FFFE00
FFFC00
FFF800
000000
000000
000000
000000
000000
000000
000000
ENDCHAR
STARTCHAR char93
ENCODING 93
SWIDTH 1420 0
DWIDTH 20 0
BBX 16 40 2 -8
BITMAP
0000
0FFF
1801
3801
7801
F801
F801
FFE1
FFE1
FFE1
FFE1
FFE1
01E1
01E1
01E1
01E1
01E1
01E1
01E1
01E1
01E1
01E1
0FE1
1801
3801
7801
F801
F801
FFFF
FFFE
FFFC
FFF8
FFF0
0000
0000
0000
0000
0000
0000
0000
ENDCHAR
STARTCHAR char96
ENCODING 96
SWIDTH 923 0
DWIDTH 13 0
BBX 11 40 0 -8
BITMAP
0000
00C0
01E0
0320
0620
0C60
18C0
38C0
7840
F840
F840
F840
FFC0
FF80
FF00
FE00
FC00
0000
0000
0000
0000
0000
0000
0000
0000
0000
0000
0000
0000
0000
0000
0000
0000
0000
0000
0000
0000
0000
0000
0000
ENDCHAR
ENDFONT
